<?xml version="1.0" encoding="UTF-8" standalone="no"?>
<!DOCTYPE svg PUBLIC "-//W3C//DTD SVG 1.1//EN"
 "http://www.w3.org/Graphics/SVG/1.1/DTD/svg11.dtd">
<!-- Generated by graphviz version 2.44.0 (20200518.1210)
 -->
<!-- Title: Salesforce+ ERD Pages: 1 -->
<svg width="946pt" height="789pt"
 viewBox="0.00 0.00 946.49 788.80" xmlns="http://www.w3.org/2000/svg" xmlns:xlink="http://www.w3.org/1999/xlink">
<g id="graph0" class="graph" transform="scale(1 1) rotate(0) translate(4 784.8)">
<title>Salesforce+ ERD</title>
<polygon fill="#efeffd" stroke="transparent" points="-4,4 -4,-784.8 942.49,-784.8 942.49,4 -4,4"/>
<text text-anchor="middle" x="890" y="-6.7" font-family="Courier,monospace" font-size="9.00">Salesforce ERD </text>
<!-- ScratchOrgInfo -->
<g id="node1" class="node">
<title>ScratchOrgInfo</title>
<g id="a_node1"><a xlink:href="#" xlink:title=" ScratchOrgInfo ">
<polygon fill="#ffeeff" stroke="transparent" points="147.49,-18.8 147.49,-780.8 938.49,-780.8 938.49,-18.8 147.49,-18.8"/>
<polygon fill="lightblue" stroke="transparent" points="148.99,-760.8 148.99,-779.8 937.99,-779.8 937.99,-760.8 148.99,-760.8"/>
<polygon fill="none" stroke="#99ccff" points="148.99,-760.8 148.99,-779.8 937.99,-779.8 937.99,-760.8 148.99,-760.8"/>
<text text-anchor="start" x="497.3" y="-767.9" font-family="Courier,monospace" font-weight="bold" font-size="11.00">ScratchOrgInfo</text>
<polygon fill="#99ccff" stroke="transparent" points="148.99,-741.8 148.99,-760.8 833.99,-760.8 833.99,-741.8 148.99,-741.8"/>
<polygon fill="none" stroke="#99ccff" points="148.99,-741.8 148.99,-760.8 833.99,-760.8 833.99,-741.8 148.99,-741.8"/>
<text text-anchor="start" x="151.99" y="-748.9" font-family="Courier,monospace" font-size="11.00"> &#160;&#160;&#160;&#160;&#160;&#160;&#160;&#160;&#160;&#160;&#160;&#160;&#160;&#160;&#160;&#160;&#160;&#160;&#160;&#160;&#160;&#160;&#160;&#160;&#160;&#160;&#160;&#160;&#160;&#160;&#160;&#160;&#160;&#160;&#160;&#160;&#160;&#160;&#160;&#160;&#160;&#160;</text>
<text text-anchor="start" x="435.74" y="-748.9" font-family="Courier,monospace" font-weight="bold" font-size="11.00">Id</text>
<text text-anchor="start" x="448.94" y="-748.9" font-family="Courier,monospace" font-size="11.00"> &#160;&#160;&#160;&#160;&#160;&#160;&#160;&#160;&#160;&#160;&#160;&#160;&#160;&#160;&#160;&#160;&#160;&#160;&#160;&#160;&#160;&#160;&#160;&#160;&#160;&#160;&#160;&#160;&#160;&#160;&#160;&#160;&#160;&#160;&#160;&#160;&#160;&#160;&#160;</text>
<polygon fill="none" stroke="#99ccff" points="833.99,-741.8 833.99,-760.8 937.99,-760.8 937.99,-741.8 833.99,-741.8"/>
<text text-anchor="start" x="866.19" y="-747.9" font-family="Courier,monospace" font-size="11.00">id(18)</text>
<polygon fill="none" stroke="#99ccff" points="148.99,-722.8 148.99,-741.8 833.99,-741.8 833.99,-722.8 148.99,-722.8"/>
<text text-anchor="start" x="151.99" y="-728.9" font-family="Courier,monospace" font-size="11.00"> &#160;&#160;&#160;&#160;&#160;&#160;&#160;&#160;&#160;&#160;&#160;&#160;&#160;&#160;&#160;&#160;&#160;&#160;&#160;&#160;&#160;&#160;&#160;&#160;&#160;&#160;&#160;&#160;&#160;&#160;&#160;&#160;&#160;&#160;&#160;&#160;&#160;&#160;&#160;&#160;OwnerId &#160;&#160;&#160;&#160;&#160;&#160;&#160;&#160;&#160;&#160;&#160;&#160;&#160;&#160;&#160;&#160;&#160;&#160;&#160;&#160;&#160;&#160;&#160;&#160;&#160;&#160;&#160;&#160;&#160;&#160;&#160;&#160;&#160;&#160;&#160;&#160;&#160;&#160;</text>
<polygon fill="none" stroke="#99ccff" points="833.99,-722.8 833.99,-741.8 937.99,-741.8 937.99,-722.8 833.99,-722.8"/>
<text text-anchor="start" x="843.1" y="-728.9" font-family="Courier,monospace" font-size="11.00">reference(18)</text>
<polygon fill="none" stroke="#99ccff" points="148.99,-703.8 148.99,-722.8 833.99,-722.8 833.99,-703.8 148.99,-703.8"/>
<text text-anchor="start" x="151.99" y="-709.9" font-family="Courier,monospace" font-size="11.00"> &#160;&#160;&#160;&#160;&#160;&#160;&#160;&#160;&#160;&#160;&#160;&#160;&#160;&#160;&#160;&#160;&#160;&#160;&#160;&#160;&#160;&#160;&#160;&#160;&#160;&#160;&#160;&#160;&#160;&#160;&#160;&#160;&#160;&#160;&#160;&#160;&#160;&#160;&#160;&#160;IsDeleted &#160;&#160;&#160;&#160;&#160;&#160;&#160;&#160;&#160;&#160;&#160;&#160;&#160;&#160;&#160;&#160;&#160;&#160;&#160;&#160;&#160;&#160;&#160;&#160;&#160;&#160;&#160;&#160;&#160;&#160;&#160;&#160;&#160;&#160;&#160;&#160;&#160;&#160;</text>
<polygon fill="none" stroke="#99ccff" points="833.99,-703.8 833.99,-722.8 937.99,-722.8 937.99,-703.8 833.99,-703.8"/>
<text text-anchor="start" x="862.89" y="-709.9" font-family="Courier,monospace" font-size="11.00">boolean</text>
<polygon fill="none" stroke="#99ccff" points="148.99,-684.8 148.99,-703.8 833.99,-703.8 833.99,-684.8 148.99,-684.8"/>
<text text-anchor="start" x="151.99" y="-690.9" font-family="Courier,monospace" font-size="11.00"> &#160;&#160;&#160;&#160;&#160;&#160;&#160;&#160;&#160;&#160;&#160;&#160;&#160;&#160;&#160;&#160;&#160;&#160;&#160;&#160;&#160;&#160;&#160;&#160;&#160;&#160;&#160;&#160;&#160;&#160;&#160;&#160;&#160;&#160;&#160;&#160;&#160;&#160;&#160;&#160;Name &#160;&#160;&#160;&#160;&#160;&#160;&#160;&#160;&#160;&#160;&#160;&#160;&#160;&#160;&#160;&#160;&#160;&#160;&#160;&#160;&#160;&#160;&#160;&#160;&#160;&#160;&#160;&#160;&#160;&#160;&#160;&#160;&#160;&#160;&#160;&#160;&#160;&#160;</text>
<polygon fill="none" stroke="#99ccff" points="833.99,-684.8 833.99,-703.8 937.99,-703.8 937.99,-684.8 833.99,-684.8"/>
<text text-anchor="start" x="849.7" y="-690.9" font-family="Courier,monospace" font-size="11.00">string(255)</text>
<polygon fill="none" stroke="#99ccff" points="148.99,-665.8 148.99,-684.8 833.99,-684.8 833.99,-665.8 148.99,-665.8"/>
<text text-anchor="start" x="151.99" y="-671.9" font-family="Courier,monospace" font-size="11.00"> &#160;&#160;&#160;&#160;&#160;&#160;&#160;&#160;&#160;&#160;&#160;&#160;&#160;&#160;&#160;&#160;&#160;&#160;&#160;&#160;&#160;&#160;&#160;&#160;&#160;&#160;&#160;&#160;&#160;&#160;&#160;&#160;&#160;&#160;&#160;&#160;&#160;&#160;&#160;&#160;LastModifiedById &#160;&#160;&#160;&#160;&#160;&#160;&#160;&#160;&#160;&#160;&#160;&#160;&#160;&#160;&#160;&#160;&#160;&#160;&#160;&#160;&#160;&#160;&#160;&#160;&#160;&#160;&#160;&#160;&#160;&#160;&#160;&#160;&#160;&#160;&#160;&#160;&#160;&#160;</text>
<polygon fill="none" stroke="#99ccff" points="833.99,-665.8 833.99,-684.8 937.99,-684.8 937.99,-665.8 833.99,-665.8"/>
<text text-anchor="start" x="843.1" y="-671.9" font-family="Courier,monospace" font-size="11.00">reference(18)</text>
<polygon fill="none" stroke="#99ccff" points="148.99,-646.8 148.99,-665.8 833.99,-665.8 833.99,-646.8 148.99,-646.8"/>
<text text-anchor="start" x="151.99" y="-652.9" font-family="Courier,monospace" font-size="11.00"> &#160;&#160;&#160;&#160;&#160;&#160;&#160;&#160;&#160;&#160;&#160;&#160;&#160;&#160;&#160;&#160;&#160;&#160;&#160;&#160;&#160;&#160;&#160;&#160;&#160;&#160;&#160;&#160;&#160;&#160;&#160;&#160;&#160;&#160;&#160;&#160;&#160;&#160;&#160;&#160;LastViewedDate &#160;&#160;&#160;&#160;&#160;&#160;&#160;&#160;&#160;&#160;&#160;&#160;&#160;&#160;&#160;&#160;&#160;&#160;&#160;&#160;&#160;&#160;&#160;&#160;&#160;&#160;&#160;&#160;&#160;&#160;&#160;&#160;&#160;&#160;&#160;&#160;&#160;&#160;</text>
<polygon fill="none" stroke="#99ccff" points="833.99,-646.8 833.99,-665.8 937.99,-665.8 937.99,-646.8 833.99,-646.8"/>
<text text-anchor="start" x="859.59" y="-652.9" font-family="Courier,monospace" font-size="11.00">datetime</text>
<polygon fill="none" stroke="#99ccff" points="148.99,-627.8 148.99,-646.8 833.99,-646.8 833.99,-627.8 148.99,-627.8"/>
<text text-anchor="start" x="151.99" y="-633.9" font-family="Courier,monospace" font-size="11.00"> &#160;&#160;&#160;&#160;&#160;&#160;&#160;&#160;&#160;&#160;&#160;&#160;&#160;&#160;&#160;&#160;&#160;&#160;&#160;&#160;&#160;&#160;&#160;&#160;&#160;&#160;&#160;&#160;&#160;&#160;&#160;&#160;&#160;&#160;&#160;&#160;&#160;&#160;&#160;&#160;LastReferencedDate &#160;&#160;&#160;&#160;&#160;&#160;&#160;&#160;&#160;&#160;&#160;&#160;&#160;&#160;&#160;&#160;&#160;&#160;&#160;&#160;&#160;&#160;&#160;&#160;&#160;&#160;&#160;&#160;&#160;&#160;&#160;&#160;&#160;&#160;&#160;&#160;&#160;&#160;</text>
<polygon fill="none" stroke="#99ccff" points="833.99,-627.8 833.99,-646.8 937.99,-646.8 937.99,-627.8 833.99,-627.8"/>
<text text-anchor="start" x="859.59" y="-633.9" font-family="Courier,monospace" font-size="11.00">datetime</text>
<polygon fill="none" stroke="#99ccff" points="148.99,-608.8 148.99,-627.8 833.99,-627.8 833.99,-608.8 148.99,-608.8"/>
<text text-anchor="start" x="151.99" y="-614.9" font-family="Courier,monospace" font-size="11.00"> &#160;&#160;&#160;&#160;&#160;&#160;&#160;&#160;&#160;&#160;&#160;&#160;&#160;&#160;&#160;&#160;&#160;&#160;&#160;&#160;&#160;&#160;&#160;&#160;&#160;&#160;&#160;&#160;&#160;&#160;&#160;&#160;&#160;&#160;&#160;&#160;&#160;&#160;&#160;&#160;Edition &#160;&#160;&#160;&#160;&#160;&#160;&#160;&#160;&#160;&#160;&#160;&#160;&#160;&#160;&#160;&#160;&#160;&#160;&#160;&#160;&#160;&#160;&#160;&#160;&#160;&#160;&#160;&#160;&#160;&#160;&#160;&#160;&#160;&#160;&#160;&#160;&#160;&#160;</text>
<polygon fill="none" stroke="#99ccff" points="833.99,-608.8 833.99,-627.8 937.99,-627.8 937.99,-608.8 833.99,-608.8"/>
<text text-anchor="start" x="843.1" y="-614.9" font-family="Courier,monospace" font-size="11.00">picklist(255)</text>
<polygon fill="none" stroke="#99ccff" points="148.99,-589.8 148.99,-608.8 833.99,-608.8 833.99,-589.8 148.99,-589.8"/>
<text text-anchor="start" x="151.99" y="-595.9" font-family="Courier,monospace" font-size="11.00"> &#160;&#160;&#160;&#160;&#160;&#160;&#160;&#160;&#160;&#160;&#160;&#160;&#160;&#160;&#160;&#160;&#160;&#160;&#160;&#160;&#160;&#160;&#160;&#160;&#160;&#160;&#160;&#160;&#160;&#160;&#160;&#160;&#160;&#160;&#160;&#160;&#160;&#160;&#160;&#160;Username &#160;&#160;&#160;&#160;&#160;&#160;&#160;&#160;&#160;&#160;&#160;&#160;&#160;&#160;&#160;&#160;&#160;&#160;&#160;&#160;&#160;&#160;&#160;&#160;&#160;&#160;&#160;&#160;&#160;&#160;&#160;&#160;&#160;&#160;&#160;&#160;&#160;&#160;</text>
<polygon fill="none" stroke="#99ccff" points="833.99,-589.8 833.99,-608.8 937.99,-608.8 937.99,-589.8 833.99,-589.8"/>
<text text-anchor="start" x="853" y="-595.9" font-family="Courier,monospace" font-size="11.00">string(80)</text>
<polygon fill="none" stroke="#99ccff" points="148.99,-570.8 148.99,-589.8 833.99,-589.8 833.99,-570.8 148.99,-570.8"/>
<text text-anchor="start" x="151.99" y="-576.9" font-family="Courier,monospace" font-size="11.00"> &#160;&#160;&#160;&#160;&#160;&#160;&#160;&#160;&#160;&#160;&#160;&#160;&#160;&#160;&#160;&#160;&#160;&#160;&#160;&#160;&#160;&#160;&#160;&#160;&#160;&#160;&#160;&#160;&#160;&#160;&#160;&#160;&#160;&#160;&#160;&#160;&#160;&#160;&#160;&#160;AdminEmail &#160;&#160;&#160;&#160;&#160;&#160;&#160;&#160;&#160;&#160;&#160;&#160;&#160;&#160;&#160;&#160;&#160;&#160;&#160;&#160;&#160;&#160;&#160;&#160;&#160;&#160;&#160;&#160;&#160;&#160;&#160;&#160;&#160;&#160;&#160;&#160;&#160;&#160;</text>
<polygon fill="none" stroke="#99ccff" points="833.99,-570.8 833.99,-589.8 937.99,-589.8 937.99,-570.8 833.99,-570.8"/>
<text text-anchor="start" x="856.29" y="-576.9" font-family="Courier,monospace" font-size="11.00">email(80)</text>
<polygon fill="none" stroke="#99ccff" points="148.99,-551.8 148.99,-570.8 833.99,-570.8 833.99,-551.8 148.99,-551.8"/>
<text text-anchor="start" x="151.99" y="-557.9" font-family="Courier,monospace" font-size="11.00"> &#160;&#160;&#160;&#160;&#160;&#160;&#160;&#160;&#160;&#160;&#160;&#160;&#160;&#160;&#160;&#160;&#160;&#160;&#160;&#160;&#160;&#160;&#160;&#160;&#160;&#160;&#160;&#160;&#160;&#160;&#160;&#160;&#160;&#160;&#160;&#160;&#160;&#160;&#160;&#160;OrgName &#160;&#160;&#160;&#160;&#160;&#160;&#160;&#160;&#160;&#160;&#160;&#160;&#160;&#160;&#160;&#160;&#160;&#160;&#160;&#160;&#160;&#160;&#160;&#160;&#160;&#160;&#160;&#160;&#160;&#160;&#160;&#160;&#160;&#160;&#160;&#160;&#160;&#160;</text>
<polygon fill="none" stroke="#99ccff" points="833.99,-551.8 833.99,-570.8 937.99,-570.8 937.99,-551.8 833.99,-551.8"/>
<text text-anchor="start" x="853" y="-557.9" font-family="Courier,monospace" font-size="11.00">string(80)</text>
<polygon fill="none" stroke="#99ccff" points="148.99,-532.8 148.99,-551.8 833.99,-551.8 833.99,-532.8 148.99,-532.8"/>
<text text-anchor="start" x="151.99" y="-538.9" font-family="Courier,monospace" font-size="11.00"> &#160;&#160;&#160;&#160;&#160;&#160;&#160;&#160;&#160;&#160;&#160;&#160;&#160;&#160;&#160;&#160;&#160;&#160;&#160;&#160;&#160;&#160;&#160;&#160;&#160;&#160;&#160;&#160;&#160;&#160;&#160;&#160;&#160;&#160;&#160;&#160;&#160;&#160;&#160;&#160;DurationDays &#160;&#160;&#160;&#160;&#160;&#160;&#160;&#160;&#160;&#160;&#160;&#160;&#160;&#160;&#160;&#160;&#160;&#160;&#160;&#160;&#160;&#160;&#160;&#160;&#160;&#160;&#160;&#160;&#160;&#160;&#160;&#160;&#160;&#160;&#160;&#160;&#160;&#160;</text>
<polygon fill="none" stroke="#99ccff" points="833.99,-532.8 833.99,-551.8 937.99,-551.8 937.99,-532.8 833.99,-532.8"/>
<text text-anchor="start" x="876.09" y="-538.9" font-family="Courier,monospace" font-size="11.00">int</text>
<polygon fill="none" stroke="#99ccff" points="148.99,-513.8 148.99,-532.8 833.99,-532.8 833.99,-513.8 148.99,-513.8"/>
<text text-anchor="start" x="151.65" y="-519.9" font-family="Courier,monospace" font-size="11.00"> &#160;&#160;&#160;&#160;&#160;&#160;&#160;&#160;&#160;&#160;&#160;&#160;&#160;&#160;&#160;&#160;&#160;&#160;&#160;&#160;&#160;&#160;&#160;&#160;&#160;&#160;&#160;&#160;&#160;&#160;&#160;&#160;&#160;&#160;&#160;&#160;&#160;&#160;&#160;&#160;ConnectedAppConsumerKey &#160;&#160;&#160;&#160;&#160;&#160;&#160;&#160;&#160;&#160;&#160;&#160;&#160;&#160;&#160;&#160;&#160;&#160;&#160;&#160;&#160;&#160;&#160;&#160;&#160;&#160;&#160;&#160;&#160;&#160;&#160;&#160;&#160;&#160;&#160;&#160;&#160;&#160;</text>
<polygon fill="none" stroke="#99ccff" points="833.99,-513.8 833.99,-532.8 937.99,-532.8 937.99,-513.8 833.99,-513.8"/>
<text text-anchor="start" x="849.7" y="-519.9" font-family="Courier,monospace" font-size="11.00">string(120)</text>
<polygon fill="none" stroke="#99ccff" points="148.99,-494.8 148.99,-513.8 833.99,-513.8 833.99,-494.8 148.99,-494.8"/>
<text text-anchor="start" x="151.65" y="-500.9" font-family="Courier,monospace" font-size="11.00"> &#160;&#160;&#160;&#160;&#160;&#160;&#160;&#160;&#160;&#160;&#160;&#160;&#160;&#160;&#160;&#160;&#160;&#160;&#160;&#160;&#160;&#160;&#160;&#160;&#160;&#160;&#160;&#160;&#160;&#160;&#160;&#160;&#160;&#160;&#160;&#160;&#160;&#160;&#160;&#160;ConnectedAppCallbackUrl &#160;&#160;&#160;&#160;&#160;&#160;&#160;&#160;&#160;&#160;&#160;&#160;&#160;&#160;&#160;&#160;&#160;&#160;&#160;&#160;&#160;&#160;&#160;&#160;&#160;&#160;&#160;&#160;&#160;&#160;&#160;&#160;&#160;&#160;&#160;&#160;&#160;&#160;</text>
<polygon fill="none" stroke="#99ccff" points="833.99,-494.8 833.99,-513.8 937.99,-513.8 937.99,-494.8 833.99,-494.8"/>
<text text-anchor="start" x="839.8" y="-500.9" font-family="Courier,monospace" font-size="11.00">textarea(2000)</text>
<polygon fill="none" stroke="#99ccff" points="148.99,-475.8 148.99,-494.8 833.99,-494.8 833.99,-475.8 148.99,-475.8"/>
<text text-anchor="start" x="151.99" y="-481.9" font-family="Courier,monospace" font-size="11.00"> &#160;&#160;&#160;&#160;&#160;&#160;&#160;&#160;&#160;&#160;&#160;&#160;&#160;&#160;&#160;&#160;&#160;&#160;&#160;&#160;&#160;&#160;&#160;&#160;&#160;&#160;&#160;&#160;&#160;&#160;&#160;&#160;&#160;&#160;&#160;&#160;&#160;&#160;&#160;&#160;Namespace &#160;&#160;&#160;&#160;&#160;&#160;&#160;&#160;&#160;&#160;&#160;&#160;&#160;&#160;&#160;&#160;&#160;&#160;&#160;&#160;&#160;&#160;&#160;&#160;&#160;&#160;&#160;&#160;&#160;&#160;&#160;&#160;&#160;&#160;&#160;&#160;&#160;&#160;</text>
<polygon fill="none" stroke="#99ccff" points="833.99,-475.8 833.99,-494.8 937.99,-494.8 937.99,-475.8 833.99,-475.8"/>
<text text-anchor="start" x="853" y="-481.9" font-family="Courier,monospace" font-size="11.00">string(15)</text>
<polygon fill="none" stroke="#99ccff" points="148.99,-456.8 148.99,-475.8 833.99,-475.8 833.99,-456.8 148.99,-456.8"/>
<text text-anchor="start" x="151.99" y="-462.9" font-family="Courier,monospace" font-size="11.00"> &#160;&#160;&#160;&#160;&#160;&#160;&#160;&#160;&#160;&#160;&#160;&#160;&#160;&#160;&#160;&#160;&#160;&#160;&#160;&#160;&#160;&#160;&#160;&#160;&#160;&#160;&#160;&#160;&#160;&#160;&#160;&#160;&#160;&#160;&#160;&#160;&#160;&#160;&#160;&#160;Features &#160;&#160;&#160;&#160;&#160;&#160;&#160;&#160;&#160;&#160;&#160;&#160;&#160;&#160;&#160;&#160;&#160;&#160;&#160;&#160;&#160;&#160;&#160;&#160;&#160;&#160;&#160;&#160;&#160;&#160;&#160;&#160;&#160;&#160;&#160;&#160;&#160;&#160;</text>
<polygon fill="none" stroke="#99ccff" points="833.99,-456.8 833.99,-475.8 937.99,-475.8 937.99,-456.8 833.99,-456.8"/>
<text text-anchor="start" x="836.5" y="-462.9" font-family="Courier,monospace" font-size="11.00">textarea(10000)</text>
<polygon fill="none" stroke="#99ccff" points="148.99,-437.8 148.99,-456.8 833.99,-456.8 833.99,-437.8 148.99,-437.8"/>
<text text-anchor="start" x="151.99" y="-443.9" font-family="Courier,monospace" font-size="11.00"> &#160;&#160;&#160;&#160;&#160;&#160;&#160;&#160;&#160;&#160;&#160;&#160;&#160;&#160;&#160;&#160;&#160;&#160;&#160;&#160;&#160;&#160;&#160;&#160;&#160;&#160;&#160;&#160;&#160;&#160;&#160;&#160;&#160;&#160;&#160;&#160;&#160;&#160;&#160;&#160;Country &#160;&#160;&#160;&#160;&#160;&#160;&#160;&#160;&#160;&#160;&#160;&#160;&#160;&#160;&#160;&#160;&#160;&#160;&#160;&#160;&#160;&#160;&#160;&#160;&#160;&#160;&#160;&#160;&#160;&#160;&#160;&#160;&#160;&#160;&#160;&#160;&#160;&#160;</text>
<polygon fill="none" stroke="#99ccff" points="833.99,-437.8 833.99,-456.8 937.99,-456.8 937.99,-437.8 833.99,-437.8"/>
<text text-anchor="start" x="856.29" y="-443.9" font-family="Courier,monospace" font-size="11.00">string(3)</text>
<polygon fill="none" stroke="#99ccff" points="148.99,-418.8 148.99,-437.8 833.99,-437.8 833.99,-418.8 148.99,-418.8"/>
<text text-anchor="start" x="151.99" y="-424.9" font-family="Courier,monospace" font-size="11.00"> &#160;&#160;&#160;&#160;&#160;&#160;&#160;&#160;&#160;&#160;&#160;&#160;&#160;&#160;&#160;&#160;&#160;&#160;&#160;&#160;&#160;&#160;&#160;&#160;&#160;&#160;&#160;&#160;&#160;&#160;&#160;&#160;&#160;&#160;&#160;&#160;&#160;&#160;&#160;&#160;Language &#160;&#160;&#160;&#160;&#160;&#160;&#160;&#160;&#160;&#160;&#160;&#160;&#160;&#160;&#160;&#160;&#160;&#160;&#160;&#160;&#160;&#160;&#160;&#160;&#160;&#160;&#160;&#160;&#160;&#160;&#160;&#160;&#160;&#160;&#160;&#160;&#160;&#160;</text>
<polygon fill="none" stroke="#99ccff" points="833.99,-418.8 833.99,-437.8 937.99,-437.8 937.99,-418.8 833.99,-418.8"/>
<text text-anchor="start" x="843.1" y="-424.9" font-family="Courier,monospace" font-size="11.00">picklist(255)</text>
<polygon fill="none" stroke="#99ccff" points="148.99,-399.8 148.99,-418.8 833.99,-418.8 833.99,-399.8 148.99,-399.8"/>
<text text-anchor="start" x="151.99" y="-405.9" font-family="Courier,monospace" font-size="11.00"> &#160;&#160;&#160;&#160;&#160;&#160;&#160;&#160;&#160;&#160;&#160;&#160;&#160;&#160;&#160;&#160;&#160;&#160;&#160;&#160;&#160;&#160;&#160;&#160;&#160;&#160;&#160;&#160;&#160;&#160;&#160;&#160;&#160;&#160;&#160;&#160;&#160;&#160;&#160;&#160;Instance &#160;&#160;&#160;&#160;&#160;&#160;&#160;&#160;&#160;&#160;&#160;&#160;&#160;&#160;&#160;&#160;&#160;&#160;&#160;&#160;&#160;&#160;&#160;&#160;&#160;&#160;&#160;&#160;&#160;&#160;&#160;&#160;&#160;&#160;&#160;&#160;&#160;&#160;</text>
<polygon fill="none" stroke="#99ccff" points="833.99,-399.8 833.99,-418.8 937.99,-418.8 937.99,-399.8 833.99,-399.8"/>
<text text-anchor="start" x="856.29" y="-405.9" font-family="Courier,monospace" font-size="11.00">string(8)</text>
<polygon fill="none" stroke="#99ccff" points="148.99,-380.8 148.99,-399.8 833.99,-399.8 833.99,-380.8 148.99,-380.8"/>
<text text-anchor="start" x="151.99" y="-386.9" font-family="Courier,monospace" font-size="11.00"> &#160;&#160;&#160;&#160;&#160;&#160;&#160;&#160;&#160;&#160;&#160;&#160;&#160;&#160;&#160;&#160;&#160;&#160;&#160;&#160;&#160;&#160;&#160;&#160;&#160;&#160;&#160;&#160;&#160;&#160;&#160;&#160;&#160;&#160;&#160;&#160;&#160;&#160;&#160;&#160;Package2AncestorIds &#160;&#160;&#160;&#160;&#160;&#160;&#160;&#160;&#160;&#160;&#160;&#160;&#160;&#160;&#160;&#160;&#160;&#160;&#160;&#160;&#160;&#160;&#160;&#160;&#160;&#160;&#160;&#160;&#160;&#160;&#160;&#160;&#160;&#160;&#160;&#160;&#160;&#160;</text>
<polygon fill="none" stroke="#99ccff" points="833.99,-380.8 833.99,-399.8 937.99,-399.8 937.99,-380.8 833.99,-380.8"/>
<text text-anchor="start" x="839.8" y="-386.9" font-family="Courier,monospace" font-size="11.00">textarea(2000)</text>
<polygon fill="none" stroke="#99ccff" points="148.99,-361.8 148.99,-380.8 833.99,-380.8 833.99,-361.8 148.99,-361.8"/>
<text text-anchor="start" x="151.99" y="-367.9" font-family="Courier,monospace" font-size="11.00"> &#160;&#160;&#160;&#160;&#160;&#160;&#160;&#160;&#160;&#160;&#160;&#160;&#160;&#160;&#160;&#160;&#160;&#160;&#160;&#160;&#160;&#160;&#160;&#160;&#160;&#160;&#160;&#160;&#160;&#160;&#160;&#160;&#160;&#160;&#160;&#160;&#160;&#160;&#160;&#160;SourceOrg &#160;&#160;&#160;&#160;&#160;&#160;&#160;&#160;&#160;&#160;&#160;&#160;&#160;&#160;&#160;&#160;&#160;&#160;&#160;&#160;&#160;&#160;&#160;&#160;&#160;&#160;&#160;&#160;&#160;&#160;&#160;&#160;&#160;&#160;&#160;&#160;&#160;&#160;</text>
<polygon fill="none" stroke="#99ccff" points="833.99,-361.8 833.99,-380.8 937.99,-380.8 937.99,-361.8 833.99,-361.8"/>
<text text-anchor="start" x="853" y="-367.9" font-family="Courier,monospace" font-size="11.00">string(18)</text>
<polygon fill="none" stroke="#99ccff" points="148.99,-342.8 148.99,-361.8 833.99,-361.8 833.99,-342.8 148.99,-342.8"/>
<text text-anchor="start" x="151.99" y="-348.9" font-family="Courier,monospace" font-size="11.00"> &#160;&#160;&#160;&#160;&#160;&#160;&#160;&#160;&#160;&#160;&#160;&#160;&#160;&#160;&#160;&#160;&#160;&#160;&#160;&#160;&#160;&#160;&#160;&#160;&#160;&#160;&#160;&#160;&#160;&#160;&#160;&#160;&#160;&#160;&#160;&#160;&#160;&#160;&#160;&#160;HasSampleData &#160;&#160;&#160;&#160;&#160;&#160;&#160;&#160;&#160;&#160;&#160;&#160;&#160;&#160;&#160;&#160;&#160;&#160;&#160;&#160;&#160;&#160;&#160;&#160;&#160;&#160;&#160;&#160;&#160;&#160;&#160;&#160;&#160;&#160;&#160;&#160;&#160;&#160;</text>
<polygon fill="none" stroke="#99ccff" points="833.99,-342.8 833.99,-361.8 937.99,-361.8 937.99,-342.8 833.99,-342.8"/>
<text text-anchor="start" x="862.89" y="-348.9" font-family="Courier,monospace" font-size="11.00">boolean</text>
<polygon fill="none" stroke="#99ccff" points="148.99,-323.8 148.99,-342.8 833.99,-342.8 833.99,-323.8 148.99,-323.8"/>
<text text-anchor="start" x="151.99" y="-329.9" font-family="Courier,monospace" font-size="11.00"> &#160;&#160;&#160;&#160;&#160;&#160;&#160;&#160;&#160;&#160;&#160;&#160;&#160;&#160;&#160;&#160;&#160;&#160;&#160;&#160;&#160;&#160;&#160;&#160;&#160;&#160;&#160;&#160;&#160;&#160;&#160;&#160;&#160;&#160;&#160;&#160;&#160;&#160;&#160;&#160;Release &#160;&#160;&#160;&#160;&#160;&#160;&#160;&#160;&#160;&#160;&#160;&#160;&#160;&#160;&#160;&#160;&#160;&#160;&#160;&#160;&#160;&#160;&#160;&#160;&#160;&#160;&#160;&#160;&#160;&#160;&#160;&#160;&#160;&#160;&#160;&#160;&#160;&#160;</text>
<polygon fill="none" stroke="#99ccff" points="833.99,-323.8 833.99,-342.8 937.99,-342.8 937.99,-323.8 833.99,-323.8"/>
<text text-anchor="start" x="843.1" y="-329.9" font-family="Courier,monospace" font-size="11.00">picklist(255)</text>
<polygon fill="none" stroke="#99ccff" points="148.99,-304.8 148.99,-323.8 833.99,-323.8 833.99,-304.8 148.99,-304.8"/>
<text text-anchor="start" x="151.99" y="-310.9" font-family="Courier,monospace" font-size="11.00"> &#160;&#160;&#160;&#160;&#160;&#160;&#160;&#160;&#160;&#160;&#160;&#160;&#160;&#160;&#160;&#160;&#160;&#160;&#160;&#160;&#160;&#160;&#160;&#160;&#160;&#160;&#160;&#160;&#160;&#160;&#160;&#160;&#160;&#160;&#160;&#160;&#160;&#160;&#160;&#160;SignupUsername &#160;&#160;&#160;&#160;&#160;&#160;&#160;&#160;&#160;&#160;&#160;&#160;&#160;&#160;&#160;&#160;&#160;&#160;&#160;&#160;&#160;&#160;&#160;&#160;&#160;&#160;&#160;&#160;&#160;&#160;&#160;&#160;&#160;&#160;&#160;&#160;&#160;&#160;</text>
<polygon fill="none" stroke="#99ccff" points="833.99,-304.8 833.99,-323.8 937.99,-323.8 937.99,-304.8 833.99,-304.8"/>
<text text-anchor="start" x="853" y="-310.9" font-family="Courier,monospace" font-size="11.00">string(80)</text>
<polygon fill="none" stroke="#99ccff" points="148.99,-285.8 148.99,-304.8 833.99,-304.8 833.99,-285.8 148.99,-285.8"/>
<text text-anchor="start" x="151.99" y="-291.9" font-family="Courier,monospace" font-size="11.00"> &#160;&#160;&#160;&#160;&#160;&#160;&#160;&#160;&#160;&#160;&#160;&#160;&#160;&#160;&#160;&#160;&#160;&#160;&#160;&#160;&#160;&#160;&#160;&#160;&#160;&#160;&#160;&#160;&#160;&#160;&#160;&#160;&#160;&#160;&#160;&#160;&#160;&#160;&#160;&#160;Status &#160;&#160;&#160;&#160;&#160;&#160;&#160;&#160;&#160;&#160;&#160;&#160;&#160;&#160;&#160;&#160;&#160;&#160;&#160;&#160;&#160;&#160;&#160;&#160;&#160;&#160;&#160;&#160;&#160;&#160;&#160;&#160;&#160;&#160;&#160;&#160;&#160;&#160;</text>
<polygon fill="none" stroke="#99ccff" points="833.99,-285.8 833.99,-304.8 937.99,-304.8 937.99,-285.8 833.99,-285.8"/>
<text text-anchor="start" x="843.1" y="-291.9" font-family="Courier,monospace" font-size="11.00">picklist(255)</text>
<polygon fill="none" stroke="#99ccff" points="148.99,-266.8 148.99,-285.8 833.99,-285.8 833.99,-266.8 148.99,-266.8"/>
<text text-anchor="start" x="151.99" y="-272.9" font-family="Courier,monospace" font-size="11.00"> &#160;&#160;&#160;&#160;&#160;&#160;&#160;&#160;&#160;&#160;&#160;&#160;&#160;&#160;&#160;&#160;&#160;&#160;&#160;&#160;&#160;&#160;&#160;&#160;&#160;&#160;&#160;&#160;&#160;&#160;&#160;&#160;&#160;&#160;&#160;&#160;&#160;&#160;&#160;&#160;ErrorCode &#160;&#160;&#160;&#160;&#160;&#160;&#160;&#160;&#160;&#160;&#160;&#160;&#160;&#160;&#160;&#160;&#160;&#160;&#160;&#160;&#160;&#160;&#160;&#160;&#160;&#160;&#160;&#160;&#160;&#160;&#160;&#160;&#160;&#160;&#160;&#160;&#160;&#160;</text>
<polygon fill="none" stroke="#99ccff" points="833.99,-266.8 833.99,-285.8 937.99,-285.8 937.99,-266.8 833.99,-266.8"/>
<text text-anchor="start" x="856.29" y="-272.9" font-family="Courier,monospace" font-size="11.00">string(8)</text>
<polygon fill="none" stroke="#99ccff" points="148.99,-247.8 148.99,-266.8 833.99,-266.8 833.99,-247.8 148.99,-247.8"/>
<text text-anchor="start" x="151.99" y="-253.9" font-family="Courier,monospace" font-size="11.00"> &#160;&#160;&#160;&#160;&#160;&#160;&#160;&#160;&#160;&#160;&#160;&#160;&#160;&#160;&#160;&#160;&#160;&#160;&#160;&#160;&#160;&#160;&#160;&#160;&#160;&#160;&#160;&#160;&#160;&#160;&#160;&#160;&#160;&#160;&#160;&#160;&#160;&#160;&#160;&#160;ScratchOrg &#160;&#160;&#160;&#160;&#160;&#160;&#160;&#160;&#160;&#160;&#160;&#160;&#160;&#160;&#160;&#160;&#160;&#160;&#160;&#160;&#160;&#160;&#160;&#160;&#160;&#160;&#160;&#160;&#160;&#160;&#160;&#160;&#160;&#160;&#160;&#160;&#160;&#160;</text>
<polygon fill="none" stroke="#99ccff" points="833.99,-247.8 833.99,-266.8 937.99,-266.8 937.99,-247.8 833.99,-247.8"/>
<text text-anchor="start" x="853" y="-253.9" font-family="Courier,monospace" font-size="11.00">string(15)</text>
<polygon fill="none" stroke="#99ccff" points="148.99,-228.8 148.99,-247.8 833.99,-247.8 833.99,-228.8 148.99,-228.8"/>
<text text-anchor="start" x="151.99" y="-234.9" font-family="Courier,monospace" font-size="11.00"> &#160;&#160;&#160;&#160;&#160;&#160;&#160;&#160;&#160;&#160;&#160;&#160;&#160;&#160;&#160;&#160;&#160;&#160;&#160;&#160;&#160;&#160;&#160;&#160;&#160;&#160;&#160;&#160;&#160;&#160;&#160;&#160;&#160;&#160;&#160;&#160;&#160;&#160;&#160;&#160;SignupInstance &#160;&#160;&#160;&#160;&#160;&#160;&#160;&#160;&#160;&#160;&#160;&#160;&#160;&#160;&#160;&#160;&#160;&#160;&#160;&#160;&#160;&#160;&#160;&#160;&#160;&#160;&#160;&#160;&#160;&#160;&#160;&#160;&#160;&#160;&#160;&#160;&#160;&#160;</text>
<polygon fill="none" stroke="#99ccff" points="833.99,-228.8 833.99,-247.8 937.99,-247.8 937.99,-228.8 833.99,-228.8"/>
<text text-anchor="start" x="853" y="-234.9" font-family="Courier,monospace" font-size="11.00">string(15)</text>
<polygon fill="none" stroke="#99ccff" points="148.99,-209.8 148.99,-228.8 833.99,-228.8 833.99,-209.8 148.99,-209.8"/>
<text text-anchor="start" x="151.99" y="-215.9" font-family="Courier,monospace" font-size="11.00"> &#160;&#160;&#160;&#160;&#160;&#160;&#160;&#160;&#160;&#160;&#160;&#160;&#160;&#160;&#160;&#160;&#160;&#160;&#160;&#160;&#160;&#160;&#160;&#160;&#160;&#160;&#160;&#160;&#160;&#160;&#160;&#160;&#160;&#160;&#160;&#160;&#160;&#160;&#160;&#160;AuthCode &#160;&#160;&#160;&#160;&#160;&#160;&#160;&#160;&#160;&#160;&#160;&#160;&#160;&#160;&#160;&#160;&#160;&#160;&#160;&#160;&#160;&#160;&#160;&#160;&#160;&#160;&#160;&#160;&#160;&#160;&#160;&#160;&#160;&#160;&#160;&#160;&#160;&#160;</text>
<polygon fill="none" stroke="#99ccff" points="833.99,-209.8 833.99,-228.8 937.99,-228.8 937.99,-209.8 833.99,-209.8"/>
<text text-anchor="start" x="849.7" y="-215.9" font-family="Courier,monospace" font-size="11.00">string(120)</text>
<polygon fill="none" stroke="#99ccff" points="148.99,-190.8 148.99,-209.8 833.99,-209.8 833.99,-190.8 148.99,-190.8"/>
<text text-anchor="start" x="151.99" y="-196.9" font-family="Courier,monospace" font-size="11.00"> &#160;&#160;&#160;&#160;&#160;&#160;&#160;&#160;&#160;&#160;&#160;&#160;&#160;&#160;&#160;&#160;&#160;&#160;&#160;&#160;&#160;&#160;&#160;&#160;&#160;&#160;&#160;&#160;&#160;&#160;&#160;&#160;&#160;&#160;&#160;&#160;&#160;&#160;&#160;&#160;SignupCountry &#160;&#160;&#160;&#160;&#160;&#160;&#160;&#160;&#160;&#160;&#160;&#160;&#160;&#160;&#160;&#160;&#160;&#160;&#160;&#160;&#160;&#160;&#160;&#160;&#160;&#160;&#160;&#160;&#160;&#160;&#160;&#160;&#160;&#160;&#160;&#160;&#160;&#160;</text>
<polygon fill="none" stroke="#99ccff" points="833.99,-190.8 833.99,-209.8 937.99,-209.8 937.99,-190.8 833.99,-190.8"/>
<text text-anchor="start" x="856.29" y="-196.9" font-family="Courier,monospace" font-size="11.00">string(3)</text>
<polygon fill="none" stroke="#99ccff" points="148.99,-171.8 148.99,-190.8 833.99,-190.8 833.99,-171.8 148.99,-171.8"/>
<text text-anchor="start" x="151.99" y="-177.9" font-family="Courier,monospace" font-size="11.00"> &#160;&#160;&#160;&#160;&#160;&#160;&#160;&#160;&#160;&#160;&#160;&#160;&#160;&#160;&#160;&#160;&#160;&#160;&#160;&#160;&#160;&#160;&#160;&#160;&#160;&#160;&#160;&#160;&#160;&#160;&#160;&#160;&#160;&#160;&#160;&#160;&#160;&#160;&#160;&#160;SignupLanguage &#160;&#160;&#160;&#160;&#160;&#160;&#160;&#160;&#160;&#160;&#160;&#160;&#160;&#160;&#160;&#160;&#160;&#160;&#160;&#160;&#160;&#160;&#160;&#160;&#160;&#160;&#160;&#160;&#160;&#160;&#160;&#160;&#160;&#160;&#160;&#160;&#160;&#160;</text>
<polygon fill="none" stroke="#99ccff" points="833.99,-171.8 833.99,-190.8 937.99,-190.8 937.99,-171.8 833.99,-171.8"/>
<text text-anchor="start" x="843.1" y="-177.9" font-family="Courier,monospace" font-size="11.00">picklist(255)</text>
<polygon fill="none" stroke="#99ccff" points="148.99,-152.8 148.99,-171.8 833.99,-171.8 833.99,-152.8 148.99,-152.8"/>
<text text-anchor="start" x="151.99" y="-158.9" font-family="Courier,monospace" font-size="11.00"> &#160;&#160;&#160;&#160;&#160;&#160;&#160;&#160;&#160;&#160;&#160;&#160;&#160;&#160;&#160;&#160;&#160;&#160;&#160;&#160;&#160;&#160;&#160;&#160;&#160;&#160;&#160;&#160;&#160;&#160;&#160;&#160;&#160;&#160;&#160;&#160;&#160;&#160;&#160;&#160;SignupEmail &#160;&#160;&#160;&#160;&#160;&#160;&#160;&#160;&#160;&#160;&#160;&#160;&#160;&#160;&#160;&#160;&#160;&#160;&#160;&#160;&#160;&#160;&#160;&#160;&#160;&#160;&#160;&#160;&#160;&#160;&#160;&#160;&#160;&#160;&#160;&#160;&#160;&#160;</text>
<polygon fill="none" stroke="#99ccff" points="833.99,-152.8 833.99,-171.8 937.99,-171.8 937.99,-152.8 833.99,-152.8"/>
<text text-anchor="start" x="856.29" y="-158.9" font-family="Courier,monospace" font-size="11.00">email(80)</text>
<polygon fill="none" stroke="#99ccff" points="148.99,-133.8 148.99,-152.8 833.99,-152.8 833.99,-133.8 148.99,-133.8"/>
<text text-anchor="start" x="151.99" y="-139.9" font-family="Courier,monospace" font-size="11.00"> &#160;&#160;&#160;&#160;&#160;&#160;&#160;&#160;&#160;&#160;&#160;&#160;&#160;&#160;&#160;&#160;&#160;&#160;&#160;&#160;&#160;&#160;&#160;&#160;&#160;&#160;&#160;&#160;&#160;&#160;&#160;&#160;&#160;&#160;&#160;&#160;&#160;&#160;&#160;&#160;SignupTrialDays &#160;&#160;&#160;&#160;&#160;&#160;&#160;&#160;&#160;&#160;&#160;&#160;&#160;&#160;&#160;&#160;&#160;&#160;&#160;&#160;&#160;&#160;&#160;&#160;&#160;&#160;&#160;&#160;&#160;&#160;&#160;&#160;&#160;&#160;&#160;&#160;&#160;&#160;</text>
<polygon fill="none" stroke="#99ccff" points="833.99,-133.8 833.99,-152.8 937.99,-152.8 937.99,-133.8 833.99,-133.8"/>
<text text-anchor="start" x="876.09" y="-139.9" font-family="Courier,monospace" font-size="11.00">int</text>
<polygon fill="none" stroke="#99ccff" points="148.99,-114.8 148.99,-133.8 833.99,-133.8 833.99,-114.8 148.99,-114.8"/>
<text text-anchor="start" x="151.99" y="-120.9" font-family="Courier,monospace" font-size="11.00"> &#160;&#160;&#160;&#160;&#160;&#160;&#160;&#160;&#160;&#160;&#160;&#160;&#160;&#160;&#160;&#160;&#160;&#160;&#160;&#160;&#160;&#160;&#160;&#160;&#160;&#160;&#160;&#160;&#160;&#160;&#160;&#160;&#160;&#160;&#160;&#160;&#160;&#160;&#160;&#160;LoginUrl &#160;&#160;&#160;&#160;&#160;&#160;&#160;&#160;&#160;&#160;&#160;&#160;&#160;&#160;&#160;&#160;&#160;&#160;&#160;&#160;&#160;&#160;&#160;&#160;&#160;&#160;&#160;&#160;&#160;&#160;&#160;&#160;&#160;&#160;&#160;&#160;&#160;&#160;</text>
<polygon fill="none" stroke="#99ccff" points="833.99,-114.8 833.99,-133.8 937.99,-133.8 937.99,-114.8 833.99,-114.8"/>
<text text-anchor="start" x="839.8" y="-120.9" font-family="Courier,monospace" font-size="11.00">textarea(2000)</text>
<polygon fill="none" stroke="#99ccff" points="148.99,-95.8 148.99,-114.8 833.99,-114.8 833.99,-95.8 148.99,-95.8"/>
<text text-anchor="start" x="151.99" y="-101.9" font-family="Courier,monospace" font-size="11.00"> &#160;&#160;&#160;&#160;&#160;&#160;&#160;&#160;&#160;&#160;&#160;&#160;&#160;&#160;&#160;&#160;&#160;&#160;&#160;&#160;&#160;&#160;&#160;&#160;&#160;&#160;&#160;&#160;&#160;&#160;&#160;&#160;&#160;&#160;&#160;&#160;&#160;&#160;&#160;&#160;Description &#160;&#160;&#160;&#160;&#160;&#160;&#160;&#160;&#160;&#160;&#160;&#160;&#160;&#160;&#160;&#160;&#160;&#160;&#160;&#160;&#160;&#160;&#160;&#160;&#160;&#160;&#160;&#160;&#160;&#160;&#160;&#160;&#160;&#160;&#160;&#160;&#160;&#160;</text>
<polygon fill="none" stroke="#99ccff" points="833.99,-95.8 833.99,-114.8 937.99,-114.8 937.99,-95.8 833.99,-95.8"/>
<text text-anchor="start" x="839.8" y="-101.9" font-family="Courier,monospace" font-size="11.00">textarea(2000)</text>
<polygon fill="none" stroke="#99ccff" points="148.99,-76.8 148.99,-95.8 833.99,-95.8 833.99,-76.8 148.99,-76.8"/>
<text text-anchor="start" x="151.99" y="-82.9" font-family="Courier,monospace" font-size="11.00"> &#160;&#160;&#160;&#160;&#160;&#160;&#160;&#160;&#160;&#160;&#160;&#160;&#160;&#160;&#160;&#160;&#160;&#160;&#160;&#160;&#160;&#160;&#160;&#160;&#160;&#160;&#160;&#160;&#160;&#160;&#160;&#160;&#160;&#160;&#160;&#160;&#160;&#160;&#160;&#160;ExpirationDate &#160;&#160;&#160;&#160;&#160;&#160;&#160;&#160;&#160;&#160;&#160;&#160;&#160;&#160;&#160;&#160;&#160;&#160;&#160;&#160;&#160;&#160;&#160;&#160;&#160;&#160;&#160;&#160;&#160;&#160;&#160;&#160;&#160;&#160;&#160;&#160;&#160;&#160;</text>
<polygon fill="none" stroke="#99ccff" points="833.99,-76.8 833.99,-95.8 937.99,-95.8 937.99,-76.8 833.99,-76.8"/>
<text text-anchor="start" x="872.79" y="-82.9" font-family="Courier,monospace" font-size="11.00">date</text>
<polygon fill="none" stroke="#99ccff" points="148.99,-57.8 148.99,-76.8 833.99,-76.8 833.99,-57.8 148.99,-57.8"/>
<text text-anchor="start" x="151.99" y="-63.9" font-family="Courier,monospace" font-size="11.00"> &#160;&#160;&#160;&#160;&#160;&#160;&#160;&#160;&#160;&#160;&#160;&#160;&#160;&#160;&#160;&#160;&#160;&#160;&#160;&#160;&#160;&#160;&#160;&#160;&#160;&#160;&#160;&#160;&#160;&#160;&#160;&#160;&#160;&#160;&#160;&#160;&#160;&#160;&#160;&#160;LastLoginDate &#160;&#160;&#160;&#160;&#160;&#160;&#160;&#160;&#160;&#160;&#160;&#160;&#160;&#160;&#160;&#160;&#160;&#160;&#160;&#160;&#160;&#160;&#160;&#160;&#160;&#160;&#160;&#160;&#160;&#160;&#160;&#160;&#160;&#160;&#160;&#160;&#160;&#160;</text>
<polygon fill="none" stroke="#99ccff" points="833.99,-57.8 833.99,-76.8 937.99,-76.8 937.99,-57.8 833.99,-57.8"/>
<text text-anchor="start" x="872.79" y="-63.9" font-family="Courier,monospace" font-size="11.00">date</text>
<polygon fill="none" stroke="#99ccff" points="148.99,-38.8 148.99,-57.8 833.99,-57.8 833.99,-38.8 148.99,-38.8"/>
<text text-anchor="start" x="151.99" y="-44.9" font-family="Courier,monospace" font-size="11.00"> &#160;&#160;&#160;&#160;&#160;&#160;&#160;&#160;&#160;&#160;&#160;&#160;&#160;&#160;&#160;&#160;&#160;&#160;&#160;&#160;&#160;&#160;&#160;&#160;&#160;&#160;&#160;&#160;&#160;&#160;&#160;&#160;&#160;&#160;&#160;&#160;&#160;&#160;&#160;&#160;DeletedBy &#160;&#160;&#160;&#160;&#160;&#160;&#160;&#160;&#160;&#160;&#160;&#160;&#160;&#160;&#160;&#160;&#160;&#160;&#160;&#160;&#160;&#160;&#160;&#160;&#160;&#160;&#160;&#160;&#160;&#160;&#160;&#160;&#160;&#160;&#160;&#160;&#160;&#160;</text>
<polygon fill="none" stroke="#99ccff" points="833.99,-38.8 833.99,-57.8 937.99,-57.8 937.99,-38.8 833.99,-38.8"/>
<text text-anchor="start" x="853" y="-44.9" font-family="Courier,monospace" font-size="11.00">string(15)</text>
<polygon fill="none" stroke="#99ccff" points="148.99,-19.8 148.99,-38.8 833.99,-38.8 833.99,-19.8 148.99,-19.8"/>
<text text-anchor="start" x="151.99" y="-25.9" font-family="Courier,monospace" font-size="11.00"> &#160;&#160;&#160;&#160;&#160;&#160;&#160;&#160;&#160;&#160;&#160;&#160;&#160;&#160;&#160;&#160;&#160;&#160;&#160;&#160;&#160;&#160;&#160;&#160;&#160;&#160;&#160;&#160;&#160;&#160;&#160;&#160;&#160;&#160;&#160;&#160;&#160;&#160;&#160;&#160;DeletedDate &#160;&#160;&#160;&#160;&#160;&#160;&#160;&#160;&#160;&#160;&#160;&#160;&#160;&#160;&#160;&#160;&#160;&#160;&#160;&#160;&#160;&#160;&#160;&#160;&#160;&#160;&#160;&#160;&#160;&#160;&#160;&#160;&#160;&#160;&#160;&#160;&#160;&#160;</text>
<polygon fill="none" stroke="#99ccff" points="833.99,-19.8 833.99,-38.8 937.99,-38.8 937.99,-19.8 833.99,-19.8"/>
<text text-anchor="start" x="872.79" y="-25.9" font-family="Courier,monospace" font-size="11.00">date</text>
<polygon fill="none" stroke="#99ccff" points="147.49,-18.8 147.49,-780.8 938.49,-780.8 938.49,-18.8 147.49,-18.8"/>
</a>
</g>
</g>
<!-- Group -->
<g id="node2" class="node">
<title>Group</title>
<text text-anchor="middle" x="27" y="-730.5" font-family="Courier,monospace" font-size="11.00">Group</text>
</g>
<!-- ScratchOrgInfo&#45;&gt;Group -->
<g id="edge1" class="edge">
<title>ScratchOrgInfo:w&#45;&gt;Group:e</title>
<path fill="none" stroke="#ff99cc" d="M133.35,-732.82C104.95,-732.91 74.92,-733.21 54.22,-733.46"/>
<polygon fill="#ff99cc" stroke="#ff99cc" points="139.99,-732.81 148,-736.4 143.99,-732.81 147.99,-732.8 147.99,-732.8 147.99,-732.8 143.99,-732.81 147.98,-729.2 139.99,-732.81 139.99,-732.81"/>
<ellipse fill="none" stroke="#ff99cc" cx="136.79" cy="-732.82" rx="3.2" ry="3.2"/>
<text text-anchor="middle" x="100.75" y="-735.5" font-family="Monaco" font-size="9.00">Owner</text>
</g>
<!-- User -->
<g id="node3" class="node">
<title>User</title>
<text text-anchor="middle" x="27" y="-677.5" font-family="Courier,monospace" font-size="11.00">User</text>
</g>
<!-- ScratchOrgInfo&#45;&gt;User -->
<g id="edge2" class="edge">
<title>ScratchOrgInfo:w&#45;&gt;User:e</title>
<path fill="none" stroke="#ff99cc" d="M138.12,-722.11C136.97,-716.83 135.89,-710.8 130.49,-707 118.32,-698.45 80.51,-690.23 54.38,-685.34"/>
<polygon fill="#ff99cc" stroke="#ff99cc" points="142.56,-726.92 145.34,-735.24 145.28,-729.86 147.99,-732.8 147.99,-732.8 147.99,-732.8 145.28,-729.86 150.64,-730.36 142.56,-726.92 142.56,-726.92"/>
<ellipse fill="none" stroke="#ff99cc" cx="140.39" cy="-724.57" rx="3.2" ry="3.2"/>
<text text-anchor="middle" x="100.75" y="-710.5" font-family="Monaco" font-size="9.00">Owner</text>
</g>
<!-- ScratchOrgInfo&#45;&gt;User -->
<g id="edge3" class="edge">
<title>ScratchOrgInfo:w&#45;&gt;User:e</title>
<path fill="none" stroke="#ff99cc" d="M133.31,-675.69C110.36,-675.34 99.69,-674.37 71,-676 65.6,-676.31 59.84,-676.82 54.34,-677.4"/>
<polygon fill="#ff99cc" stroke="#ff99cc" points="139.99,-675.74 147.96,-679.4 143.99,-675.77 147.99,-675.8 147.99,-675.8 147.99,-675.8 143.99,-675.77 148.02,-672.2 139.99,-675.74 139.99,-675.74"/>
<ellipse fill="none" stroke="#ff99cc" cx="136.79" cy="-675.71" rx="3.2" ry="3.2"/>
<text text-anchor="middle" x="100.75" y="-679.5" font-family="Monaco" font-size="9.00">LastModifiedBy</text>
</g>
</g>
</svg>
